<?xml version="1.0" encoding="utf-8"?>
<!-- Generator: Adobe Illustrator 19.0.0, SVG Export Plug-In . SVG Version: 6.00 Build 0)  -->
<svg version="1.1" id="Layer_1" xmlns="http://www.w3.org/2000/svg" xmlns:xlink="http://www.w3.org/1999/xlink" x="0px" y="0px"
	 viewBox="-49 141 512 512" style="enable-background:new -49 141 512 512;" xml:space="preserve">
<style type="text/css">
	.st0{fill:#FFFFFF;}
</style>
<path class="st0" d="M136.3,280.6c17.6,0,31.9-14.3,31.9-31.9s-14.3-31.9-31.9-31.9s-31.9,14.3-31.9,31.9S118.7,280.6,136.3,280.6z
	 M136.3,232.1c9.2,0,16.7,7.5,16.7,16.7c0,9.2-7.5,16.7-16.7,16.7c-9.2,0-16.7-7.5-16.7-16.7C119.6,239.6,127.1,232.1,136.3,232.1z"
	/>
<path class="st0" d="M345.1,408.8V232.9c0-23.2-18.9-42-42-42H41.6c-23.2,0-42,18.9-42,42v175.9c0,23.2,18.9,42,42,42h261.5
	C326.3,450.9,345.1,432,345.1,408.8z M303.1,435.7H188l-36.1-54.4l69.7-104.9c2.4-3.7,6.4-5.8,10.8-5.8c4.4,0,8.3,2.1,10.8,5.8
	L329.9,407v1.8C329.9,423.6,317.9,435.7,303.1,435.7z M20.4,425.2l21.8-32.8c2.3-3.5,1.4-8.2-2.1-10.5c-3.5-2.3-8.2-1.4-10.5,2.1
	l-14.7,22.1V232.9c0-14.8,12-26.8,26.8-26.8h261.5c14.8,0,26.8,12,26.8,26.8v146.6L255.8,268c-5.2-7.9-14-12.5-23.4-12.5
	s-18.2,4.7-23.4,12.6l-66.2,99.6L115,325.7c-5.2-7.9-14-12.6-23.4-12.6s-18.2,4.7-23.4,12.6l-21.9,32.9c-2.3,3.5-1.4,8.2,2.1,10.5
	c3.5,2.3,8.2,1.4,10.5-2.1l21.9-32.9c2.4-3.7,6.3-5.8,10.7-5.8c4.4,0,8.3,2.1,10.7,5.8l67.5,101.5H41.6
	C33,435.7,25.3,431.6,20.4,425.2z"/>
<path class="st0" d="M439.4,260.6c4.2,0,7.6-3.4,7.6-7.6v-64.8h8.4c4.2,0,7.6-3.4,7.6-7.6v-32c0-4.2-3.4-7.6-7.6-7.6h-32
	c-4.2,0-7.6,3.4-7.6,7.6v8.4H-1.8v-8.4c0-4.2-3.4-7.6-7.6-7.6h-32c-4.2,0-7.6,3.4-7.6,7.6v32c0,4.2,3.4,7.6,7.6,7.6h8.4v417.6h-8.4
	c-4.2,0-7.6,3.4-7.6,7.6v32c0,4.2,3.4,7.6,7.6,7.6h32c4.2,0,7.6-3.4,7.6-7.6V637h417.6v8.4c0,4.2,3.4,7.6,7.6,7.6h32
	c4.2,0,7.6-3.4,7.6-7.6v-32c0-4.2-3.4-7.6-7.6-7.6H447V288.5c0-4.2-3.4-7.6-7.6-7.6c-4.2,0-7.6,3.4-7.6,7.6v317.3h-8.4
	c-4.2,0-7.6,3.4-7.6,7.6v8.4H-1.8v-8.4c0-4.2-3.4-7.6-7.6-7.6h-8.4V188.2h8.4c4.2,0,7.6-3.4,7.6-7.6v-8.4h417.6v8.4
	c0,4.2,3.4,7.6,7.6,7.6h8.4V253C431.8,257.2,435.2,260.6,439.4,260.6z M447.8,621v16.8H431V621H447.8z M-17,637.8h-16.8V621H-17
	V637.8z M-17,173h-16.8v-16.8H-17V173z M431,164.6C431,164.6,431,164.6,431,164.6C431,164.6,431,164.6,431,164.6v-8.4h16.8V173H431
	V164.6z"/>
<path class="st0" d="M341.2,595.2c0,4.2,3.4,7.6,7.6,7.6h43.5c4.2,0,7.6-3.4,7.6-7.6v-43.5c0-4.2-3.4-7.6-7.6-7.6
	c-4.2,0-7.6,3.4-7.6,7.6v25.2L282.9,475c-3-3-7.8-3-10.8,0c-3,3-3,7.8,0,10.8L374,587.6h-25.2C344.6,587.6,341.2,591,341.2,595.2z"
	/>
</svg>
