

rfc


<!-- Generator: Adobe Illustrator 19.0.0, SVG Export Plug-In . SVG Version: 6.00 Build 0)  -->
<svg version="1.1" id="Layer_1" xmlns="http://www.w3.org/2000/svg" xmlns:xlink="http://www.w3.org/1999/xlink" x="0px" y="0px"
	 viewBox="0 0 612 792" style="enable-background:new 0 0 612 792;" xml:space="preserve">
<style type="text/css">
	.st0{fill:#FFFFFF;}
</style>
<g id="XMLID_1_">
	<path id="XMLID_42_" class="st0" d="M167.9,352.6c0-5.3,0-8.9,0-12.3c0-51.4,0-102.8,0-154.3c0-10.3,0.9-20.5,7.8-29
		c8.5-10.9,19.4-16.7,33.6-16.5c63.9,0.4,127.6,0.5,191.5,1.1c14,0.2,25.6,6.4,35.4,16c29.8,29.6,59.5,59.4,89.3,89.1
		c12,12,17.4,26.3,17.4,43.4c-0.2,80.1,0,160.3,0,240.4c0,27.4-17.2,44.5-44.8,44.7c-16,0-32,0-49.4,0c0,10.7,0,20.9,0,31
		c0,30.5-15.2,45.6-45.7,45.6c-96.2,0-192.4,0-288.5,0C84.1,651.6,69,636.5,69,606c0-69.3,0-138.5,0-207.9
		c0-29.2,15.8-45.2,45.4-45.4C131.6,352.4,149.2,352.6,167.9,352.6z M395.8,175.4c-3.8,0-6.7,0-9.8,0c-57.2,0-114.4,0-171.6,0
		c-12.2,0-12.2,0-12.2,12c0,51.7,0,103.5,0,155.2c0,2.9,0.4,5.8,0.5,9.4c4.4,0,8,0,11.4,0c62.1,0,124,0.5,186.1-0.2
		c30.1-0.4,49.4,19.2,48.5,47.7c-1.3,43.6-0.4,87.1-0.4,130.7c0,3.3,0,6.4,0,10.2c16.3,0,31.4,0,46.5,0c12,0,12.2-0.2,12.2-12.2
		c0-76.8,0-153.6,0-230.4c0-3.3-0.4-6.4-0.5-10.5c-4.2,0-7.4,0-10.7,0c-20,0-39.9,0.2-59.9-0.2c-6.5-0.2-13.6-0.5-19.4-2.9
		c-14-5.6-20.9-16.9-21.1-32C395.8,227,395.8,201.6,395.8,175.4z M414.1,562.3c0-4.9,0-7.1,0-9.4c0-51.4,0-102.8,0-154.3
		c0-10.7-0.7-11.6-12.2-11.6c-95.5,0-191.2,0-286.7-0.2c-8,0-11.1,2.2-11.1,10.7c0.4,56.3,0.2,112.6,0.2,168.7
		c0,2.7,0.4,5.4,0.7,10.5c16.2-17.6,30.3-33.8,45-49.2c15.1-16,35-15.1,49.6,1.6c6.9,7.8,14,15.6,21.2,23.8c3.8-4.4,7.1-8,10.2-11.6
		c19.1-21.8,37.9-43.9,57.4-65.4c14.9-16.5,36.9-16,51.4,0.9c13.1,15.1,26.1,30.1,39.2,45.2C390.1,535.1,401.2,547.6,414.1,562.3z
		 M480.2,252.9c-16.9-16.3-33.8-33-49.4-48.1c0,14.3,0,31,0,48.1C447.9,252.9,464.4,252.9,480.2,252.9z"/>
	<path id="XMLID_36_" class="st0" d="M173.9,420.5c16.2,0.4,29.2,13.8,28.9,29.8c-0.4,16.5-13.8,29.2-30.7,28.9
		c-16.2-0.4-29-13.6-28.7-29.8C143.6,432.9,157,420.1,173.9,420.5z"/>
	<g id="XMLID_2_">
		<path id="XMLID_3_" class="st0" d="M234.6,264.6v17.1h-11.8v-48.8h19.1c5.8,0,10.2,1.5,13.3,4.4c3.1,2.9,4.5,6.7,4.5,11.6
			c0,3.1-0.7,5.8-2,8.2c-1.3,2.4-3.4,4.2-6,5.6c-2.7,1.3-6,2-9.8,2H234.6z M247.6,248.8c0-4.4-2.4-6.4-7.1-6.4h-6v12.7h6
			C245.3,254.9,247.6,252.9,247.6,248.8z"/>
		<path id="XMLID_6_" class="st0" d="M315.7,281.6h-11.8l-19.8-30v30h-11.8v-48.8h11.8l19.8,30.1v-30.1h11.8V281.6z"/>
		<path id="XMLID_8_" class="st0" d="M368.5,236.8c4,2.9,6.4,7.1,7.4,12.2h-12.5c-0.9-1.8-2.2-3.1-3.8-4.2c-1.6-1.1-3.8-1.6-6.2-1.6
			c-3.8,0-6.7,1.3-8.9,3.8c-2.2,2.5-3.4,5.8-3.4,10.2c0,4.7,1.3,8.2,3.6,10.7c2.4,2.5,5.8,3.8,10.2,3.8c2.7,0,5.3-0.7,7.4-2.4
			c2.2-1.5,3.6-3.8,4.5-6.5H352v-8.5h24.7v11.6c-0.9,2.9-2.4,5.4-4.4,8c-2,2.4-4.5,4.4-7.8,6s-6.7,2.4-10.7,2.4
			c-4.9,0-9.3-1.1-12.9-3.1c-3.6-2.2-6.5-5.1-8.5-8.7c-2-3.8-3.1-8-3.1-12.9c0-4.9,1.1-9.1,3.1-12.9c2-3.8,4.9-6.7,8.5-8.7
			c3.6-2.2,8-3.1,12.7-3.1C359.6,232.3,364.7,233.9,368.5,236.8z"/>
	</g>
</g>
</svg>
