<?xml version="1.0" encoding="utf-8"?>
<!-- Generator: Adobe Illustrator 19.0.0, SVG Export Plug-In . SVG Version: 6.00 Build 0)  -->
<svg version="1.1" id="Layer_1" xmlns="http://www.w3.org/2000/svg" xmlns:xlink="http://www.w3.org/1999/xlink" x="0px" y="0px"
	 viewBox="-49 141 512 512" style="enable-background:new -49 141 512 512;" xml:space="preserve">
<style type="text/css">
	.st0{fill:#FFFFFF;}
</style>
<g>
	<path class="st0" d="M450.2,200.7H399v-51.2c0-4.7-3.8-8.5-8.5-8.5c-4.7,0-8.5,3.8-8.5,8.5v51.2H40.6c-18.9,0-34.1,15.3-34.1,34.1
		v341.3h-42.7c-4.7,0-8.5,3.8-8.5,8.5c0,4.7,3.8,8.5,8.5,8.5H6.5v51.2c0,4.7,3.8,8.5,8.5,8.5c4.7,0,8.5-3.8,8.5-8.5v-51.2h341.3
		c18.9,0,34.1-15.3,34.1-34.1V217.8h51.2c4.7,0,8.5-3.8,8.5-8.5C458.7,204.6,454.9,200.7,450.2,200.7z M381.9,559.1
		c0,9.4-7.6,17.1-17.1,17.1H23.5V234.9c0-9.4,7.6-17.1,17.1-17.1h341.3V559.1z"/>
	<path class="st0" d="M74.7,542.1h256c9.4,0,17.1-7.6,17.1-17.1V269c0-9.4-7.6-17.1-17.1-17.1h-256c-9.4,0-17.1,7.6-17.1,17.1v256
		C57.7,534.4,65.3,542.1,74.7,542.1z M74.7,525v-30.9l68.4-69.7l35.2,35.8l-24.2,24.6c-2.3,2.1-3.3,5.4-2.5,8.4
		c0.8,3.1,3.2,5.4,6.3,6.2c3.1,0.7,6.3-0.3,8.4-2.7l113.4-115.1l51.1,51.7V525H74.7z M330.7,269v140.2l-42-42.5
		c-2.4-2.4-5.7-3.8-9.1-3.8c-3.4,0-6.7,1.4-9.1,3.9l-80.3,81.4l-38.1-38.8c-2.4-2.4-5.7-3.8-9.1-3.8c-3.4,0-6.7,1.4-9.1,3.9
		l-59.3,60.4V269H330.7z"/>
	<path class="st0" d="M143,379.9c23.6,0,42.7-19.1,42.7-42.7c0-23.6-19.1-42.7-42.7-42.7c-23.6,0-42.7,19.1-42.7,42.7
		C100.4,360.8,119.4,379.9,143,379.9z M143,311.7c14.1,0,25.6,11.5,25.6,25.6c0,14.1-11.5,25.6-25.6,25.6
		c-14.1,0-25.6-11.5-25.6-25.6C117.4,323.1,128.9,311.7,143,311.7z"/>
</g>
</svg>
