<?xml version="1.0" encoding="utf-8"?>
<!-- Generator: Adobe Illustrator 19.0.0, SVG Export Plug-In . SVG Version: 6.00 Build 0)  -->
<svg version="1.1" id="Layer_1" xmlns="http://www.w3.org/2000/svg" xmlns:xlink="http://www.w3.org/1999/xlink" x="0px" y="0px"
	 viewBox="-49 141 512 512" style="enable-background:new -49 141 512 512;" xml:space="preserve">
<style type="text/css">
	.st0{fill:#FFFFFF;}
</style>
<g id="Picture_optimize">
	<path class="st0" d="M39,637c-22.1,0-40-17.9-40-40V468.4c0-6.7-2.8-13.2-7.8-17.7c-29.7-26.4-32.4-71.9-6-101.6
		c7.4-8.3,16.5-14.7,26.8-18.9c4.1-1.7,8.8,0.3,10.4,4.4c0.4,1,0.6,2,0.6,3v63.1l16,10.7l16-10.7v-63.1c0-4.4,3.6-8,8-8
		c1,0,2,0.2,3,0.6c36.9,14.9,54.6,56.9,39.7,93.8c-4.2,10.3-10.6,19.4-18.9,26.8c-5,4.5-7.8,10.9-7.8,17.7V597
		C79,619.1,61.1,637,39,637z M7,351c-25.4,17.7-31.6,52.6-14,78c2.5,3.6,5.4,6.9,8.7,9.8c8.4,7.5,13.3,18.3,13.2,29.6V597
		c0,13.3,10.7,24,24,24s24-10.7,24-24V468.4c0-11.3,4.8-22.1,13.2-29.6c23.1-20.5,25.2-55.9,4.7-79.1c-2.9-3.3-6.3-6.3-9.9-8.8v54
		c0,2.7-1.3,5.2-3.6,6.7l-24,16c-2.7,1.8-6.2,1.8-8.9,0l-24-16c-2.2-1.5-3.6-4-3.6-6.7V351z"/>
	<path class="st0" d="M39,605c-4.4,0-8-3.6-8-8V469c0-4.4,3.6-8,8-8s8,3.6,8,8v128C47,601.4,43.4,605,39,605z"/>
	<path class="st0" d="M439,157H23c-4.4,0-8,3.6-8,8v144c0,4.4,3.6,8,8,8s8-3.6,8-8V173h400v336H279c-4.4,0-8,3.6-8,8s3.6,8,8,8h160
		c4.4,0,8-3.6,8-8V165C447,160.6,443.4,157,439,157z"/>
	<path class="st0" d="M399,397.9l-73.7-93.8c-2.7-3.5-7.8-4.1-11.2-1.3c-0.5,0.4-0.9,0.8-1.3,1.3l-50.8,64.7l-80.7-96.9
		c-2.8-3.4-7.9-3.9-11.3-1c-0.4,0.3-0.7,0.7-1,1l-60,72c-3,3.3-2.7,8.3,0.6,11.3c3.3,3,8.3,2.7,11.3-0.6c0.1-0.1,0.3-0.3,0.4-0.5
		l53.9-64.6L277.9,413H127c-4.4,0-8,3.6-8,8s3.6,8,8,8h280c4.4,0,8-3.6,8-8V197c0-4.4-3.6-8-8-8H55c-4.4,0-8,3.6-8,8v112
		c0,4.4,3.6,8,8,8s8-3.6,8-8V205h336V397.9z M272.3,381.3L319,322l71.5,91h-91.8L272.3,381.3z"/>
	<path class="st0" d="M295,253c0-17.7-14.3-32-32-32s-32,14.3-32,32s14.3,32,32,32S295,270.7,295,253z M247,253c0-8.8,7.2-16,16-16
		s16,7.2,16,16s-7.2,16-16,16S247,261.8,247,253z"/>
	<path class="st0" d="M247,501h-14l9.9-9.9c3.1-3.1,3.1-8.2,0-11.3l-22.6-22.6c-3.1-3.1-8.2-3.1-11.3,0L199,467v-14c0-4.4-3.6-8-8-8
		h-32c-4.4,0-8,3.6-8,8v14l-9.9-9.9c-3.1-3.1-8.2-3.1-11.3,0l-22.6,22.6c-3.1,3.1-3.1,8.2,0,11.3l9.9,9.9h-14c-4.4,0-8,3.6-8,8v32
		c0,4.4,3.6,8,8,8h14l-9.9,9.9c-3.1,3.1-3.1,8.2,0,11.3l22.6,22.6c3.1,3.1,8.2,3.1,11.3,0l9.9-9.9v14c0,4.4,3.6,8,8,8h32
		c4.4,0,8-3.6,8-8v-14l9.9,9.9c3.1,3.1,8.2,3.1,11.3,0l22.6-22.6c3.1-3.1,3.1-8.2,0-11.3L233,549h14c4.4,0,8-3.6,8-8v-32
		C255,504.6,251.4,501,247,501z M239,533h-18.8c-3.5,0-6.6,2.3-7.7,5.7c-0.3,1.1-0.8,2.2-1.4,3.2c-1.6,3.1-1,6.9,1.4,9.4l13.3,13.3
		l-11.3,11.3l-13.3-13.3c-2.5-2.5-6.3-3.1-9.4-1.4c-1,0.5-2.1,1-3.2,1.3c-3.4,1-5.7,4.1-5.7,7.7V589h-16v-18.8
		c0-3.5-2.3-6.6-5.7-7.7c-1.1-0.3-2.2-0.8-3.2-1.3c-3.1-1.6-6.9-1-9.4,1.4l-13.3,13.3l-11.3-11.3l13.3-13.3c2.5-2.5,3.1-6.3,1.4-9.4
		c-0.6-1-1-2.1-1.4-3.2c-1-3.4-4.1-5.7-7.7-5.7H111v-16h18.8c3.5,0,6.6-2.3,7.7-5.7c0.3-1.1,0.8-2.2,1.4-3.2c1.6-3.1,1-6.9-1.4-9.4
		l-13.3-13.3l11.3-11.3l13.3,13.3c2.5,2.5,6.3,3.1,9.4,1.4c1-0.5,2.1-1,3.2-1.3c3.4-1,5.7-4.1,5.7-7.7V461h16v18.8
		c0,3.5,2.3,6.6,5.7,7.7c1.1,0.3,2.2,0.8,3.2,1.3c3.1,1.6,6.9,1,9.4-1.4l13.3-13.3l11.3,11.3l-13.3,13.3c-2.5,2.5-3.1,6.3-1.4,9.4
		c0.6,1,1,2.1,1.4,3.2c1,3.4,4.1,5.7,7.7,5.7H239V533z"/>
	<path class="st0" d="M175,493c-17.7,0-32,14.3-32,32c0,17.7,14.3,32,32,32s32-14.3,32-32C207,507.3,192.7,493,175,493z M175,541
		c-8.8,0-16-7.2-16-16s7.2-16,16-16s16,7.2,16,16S183.8,541,175,541z"/>
</g>
</svg>
