<?xml version="1.0" encoding="utf-8"?>
<!-- Generator: Adobe Illustrator 19.0.0, SVG Export Plug-In . SVG Version: 6.00 Build 0)  -->
<svg version="1.1" id="OutLine" xmlns="http://www.w3.org/2000/svg" xmlns:xlink="http://www.w3.org/1999/xlink" x="0px" y="0px"
	 viewBox="-49 141 512 512" style="enable-background:new -49 141 512 512;" xml:space="preserve">
<g>
	<path d="M153,513h-16c-4.4,0-8,3.6-8,8v64c0,4.4,3.6,8,8,8s8-3.6,8-8v-24h8c13.3,0,24-10.7,24-24S166.3,513,153,513z M153,545h-8
		v-16h8c4.4,0,8,3.6,8,8S157.4,545,153,545z"/>
	<path d="M105,513c-4.4,0-8,3.6-8,8v48c0,4.4-3.6,8-8,8s-8-3.6-8-8s-3.6-8-8-8s-8,3.6-8,8c0,13.3,10.7,24,24,24s24-10.7,24-24l0,0
		v-48C113,516.6,109.4,513,105,513z"/>
	<path d="M233,529c4.4,0,8-3.6,8-8s-3.6-8-8-8h-32c-4.4,0-8,3.6-8,8v64c0,4.4,3.6,8,8,8h32c4.4,0,8-3.6,8-8s-3.6-8-8-8h-24v-16h8
		c4.4,0,8-3.6,8-8s-3.6-8-8-8h-8v-16H233z"/>
	<path d="M313,545h-16c-4.4,0-8,3.6-8,8s3.6,8,8,8h7c-2.3,9.2-8.2,16-15,16c-8.7,0-16-11-16-24s7.3-24,16-24c1.6,0,3.2,0.4,4.6,1.1
		c4,1.9,8.8,0.2,10.6-3.8s0.2-8.8-3.8-10.6c-3.6-1.7-7.5-2.6-11.4-2.6c-17.6,0-32,17.9-32,40s14.4,40,32,40s32-17.9,32-40
		C321,548.6,317.4,545,313,545z"/>
	<g>
		<path d="M382.7,243.3l-96-96c-1.5-1.5-3.5-2.3-5.7-2.3H57c-30.9,0-56,25.1-56,56v368c0,30.9,25.1,56,56,56h272
			c30.9,0,56-25.1,56-56V249C385,246.9,384.2,244.8,382.7,243.3z M289,172.3l68.7,68.7H329c-22.1,0-40-17.9-40-40V172.3z M57,161
			h216v40c0,30.9,25.1,56,56,56h40v96.3H17V201C17,178.9,34.9,161,57,161z M368.9,418.4h-11.2l-13-17.2v17.2h-9.3V380h9.3v16.9
			l13.1-16.9h11.1l-15.5,18.8L368.9,418.4z M330.8,418.4h-10.2l-8.3-14.5h-2.1v14.5h-9.3V380h15.8c3,0,5.6,0.5,7.7,1.6
			c2.1,1,3.7,2.5,4.7,4.3c1,1.8,1.6,3.9,1.6,6.3c0,2.8-0.8,5.2-2.3,7.1c-1.5,2-3.8,3.3-6.7,4L330.8,418.4z M297.3,418.4h-9.9l-2.4-7
			h-14.4l-2.4,7h-9.8l14-38.1h10.7L297.3,418.4z M237.4,418.4h-8l-8.3-23.9v23.9h-9.3v-38.1h11.3l10.4,26.5l10.1-26.5h11.3v38.1
			h-9.3v-23.8L237.4,418.4z M207.3,418.4H197l-8.3-14.5h-2.1v14.5h-9.3V380h15.8c3,0,5.6,0.5,7.7,1.6c2.1,1,3.7,2.5,4.7,4.3
			c1,1.8,1.6,3.9,1.6,6.3c0,2.8-0.8,5.2-2.3,7.1s-3.8,3.3-6.7,4L207.3,418.4z M170.5,395.4v7h-13v8.5h14.6v7.4h-23.9V380h23.9v7.4
			h-14.6v8H170.5z M114.3,387.4V380h30v7.4h-10.4v31h-9.3v-31H114.3z M113.2,418.4h-9.9l-2.4-7H86.6l-2.4,7h-9.8l14-38.1h10.7
			L113.2,418.4z M72.3,380l-9.2,38.3H51.7l-6.1-25.6l-6.2,25.6H27.9L18.7,380h10.1l4.9,27.8l6.7-27.8h10.1l6.7,27.8l5-27.8H72.3z
			 M369,569c0,22.1-17.9,40-40,40H57c-22.1,0-40-17.9-40-40v-72h352V569z M17,481v-36.4h352V481H17z"/>
		<polygon points="278,386.1 272.6,401.7 283.3,401.7 		"/>
		<path d="M315.9,387.8h-5.7v9.7h5.7c1.8,0,3.2-0.4,4.1-1.2c0.9-0.8,1.3-2,1.3-3.6c0-1.5-0.4-2.7-1.3-3.6
			C319.1,388.3,317.7,387.8,315.9,387.8z"/>
		<polygon points="93.8,390.2 89,404.3 98.6,404.3 		"/>
		<path d="M192.4,387.8h-5.7v9.7h5.7c1.8,0,3.2-0.4,4.1-1.2c0.9-0.8,1.3-2,1.3-3.6c0-1.5-0.4-2.7-1.3-3.6
			C195.5,388.3,194.2,387.8,192.4,387.8z"/>
	</g>
</g>
</svg>
