<?xml version="1.0" encoding="utf-8"?>
<!-- Generator: Adobe Illustrator 19.0.0, SVG Export Plug-In . SVG Version: 6.00 Build 0)  -->
<svg version="1.1" id="OutLine" xmlns="http://www.w3.org/2000/svg" xmlns:xlink="http://www.w3.org/1999/xlink" x="0px" y="0px"
	 viewBox="-49 141 512 512" style="enable-background:new -49 141 512 512;" xml:space="preserve">
<style type="text/css">
	.st0{fill:#FFFFFF;}
</style>
<path class="st0" d="M300.7,159.3c-1.5-1.5-3.5-2.3-5.7-2.3H71c-30.9,0-56,25.1-56,56v368c0,30.9,25.1,56,56,56h272
	c30.9,0,56-25.1,56-56V261c0-2.1-0.8-4.2-2.3-5.7L300.7,159.3z M303,184.3l68.7,68.7H343c-22.1,0-40-17.9-40-40V184.3z M71,173h56
	v16h-16c-4.4,0-8,3.6-8,8s3.6,8,8,8h16v16h-16c-4.4,0-8,3.6-8,8s3.6,8,8,8h16v16h-16c-4.4,0-8,3.6-8,8s3.6,8,8,8h16v16h-16
	c-4.4,0-8,3.6-8,8s3.6,8,8,8h16v16h-16c-4.4,0-8,3.6-8,8s3.6,8,8,8h16v16h-16c-4.4,0-8,3.6-8,8s3.6,8,8,8h16v16
	c-3.7,0-6.9,2.5-7.8,6.1l-5.9,23.6c-5.7,12-0.6,26.3,11.3,32c12,5.7,26.3,0.6,32-11.3c3.1-6.5,3.1-14.1,0-20.6l-5.9-23.6
	c-0.9-3.6-4.1-6.1-7.8-6.1v-16h16c4.4,0,8-3.6,8-8s-3.6-8-8-8h-16v-16h16c4.4,0,8-3.6,8-8s-3.6-8-8-8h-16v-16h16c4.4,0,8-3.6,8-8
	s-3.6-8-8-8h-16v-16h16c4.4,0,8-3.6,8-8s-3.6-8-8-8h-16v-16h16c4.4,0,8-3.6,8-8s-3.6-8-8-8h-16v-16h16c4.4,0,8-3.6,8-8s-3.6-8-8-8
	h-16v-16h144v40c0,30.9,25.1,56,56,56h40v224H31V213C31,190.9,48.9,173,71,173z M143,421c0,4.4-3.6,8-8,8s-8-3.6-8-8
	c0-1.3,0.3-2.6,0.9-3.8c0.3-0.6,0.5-1.2,0.7-1.8l4.6-18.4h3.5l4.6,18.4c0.2,0.6,0.4,1.2,0.7,1.8C142.7,418.4,143,419.7,143,421z
	 M343,621H71c-22.1,0-40-17.9-40-40v-72h352v72C383,603.1,365.1,621,343,621z"/>
<path class="st0" d="M223,541c4.4,0,8-3.6,8-8s-3.6-8-8-8h-32c-4.4,0-8,3.6-8,8s3.6,8,8,8h8v48h-8c-4.4,0-8,3.6-8,8s3.6,8,8,8h32
	c4.4,0,8-3.6,8-8s-3.6-8-8-8h-8v-48H223z"/>
<path class="st0" d="M271,525h-16c-4.4,0-8,3.6-8,8v64c0,4.4,3.6,8,8,8s8-3.6,8-8v-24h8c13.3,0,24-10.7,24-24S284.3,525,271,525z
	 M271,557h-8v-16h8c4.4,0,8,3.6,8,8S275.4,557,271,557z"/>
<path class="st0" d="M159,589h-19.1l26.2-52.4c2-4,0.4-8.8-3.6-10.7c-1.1-0.6-2.3-0.8-3.6-0.8h-32c-4.4,0-8,3.6-8,8s3.6,8,8,8h19.1
	l-26.2,52.4c-2,4-0.4,8.8,3.6,10.7c1.1,0.6,2.3,0.8,3.6,0.8h32c4.4,0,8-3.6,8-8S163.4,589,159,589z"/>
</svg>
